<svg xmlns="http://www.w3.org/2000/svg" viewBox="0 0 273.57 273.13"><defs><style>.a{fill:#516574;}</style></defs><path class="a" d="M262.73,296.39c40.94-.35,71.07,10.79,96.36,33,32.79,28.8,48.75,65.85,46.51,109.52-3.61,70.14-60,129-136.9,130.58A128.49,128.49,0,0,1,204,553.27a138.43,138.43,0,0,1-50.82-47.39c-12.36-19.29-19.88-41-20.8-63.49-1.47-35.71,8.38-68.92,32.19-96.5C195.8,309.72,233.66,296.11,262.73,296.39ZM273.62,433.5l-28.13,27.75v17.49h15.9l46.05-46.06Q286.18,411.4,264,389.14H247.68c-2.37,5.49.1,11.28-1.48,17.06Z" transform="translate(-132.24 -296.39)"/></svg>